# xmcd
#
# Track frame offsets:
#	150
#	11787
#	22445
#	35247
#	47577
#	61307
#	73942
#	85897
#	99515
#	113450
#	126135
#	139100
#	153185
#	171177
#	184790
#	198092
#	215247
#	227635
#	240747
#	250084
#
# Disc length: 3510 seconds
#
# Revision: 3
# Processed by: cddbd v1.5.1PL0 Copyright (c) Steve Scherf et al.
# Submitted via: EasyCDDAExtractor 7.5.0.1
#
DISCID=1d0db414
DTITLE=Various Artist - Essential Soul Vol 1
DYEAR=1900
DGENRE=soul
TTITLE0=Sam and Dave - Soul Man
TTITLE1=Gimme Little Sign
TTITLE2=Fontella Base - Rescue Me
TTITLE3=The Drifters - Under The Boardwalk
TTITLE4=Eddie Floyd - Knock On Wood
TTITLE5=Dobie Gray - In The Crowd
TTITLE6=Martha Reeves - Dancin In The Street
TTITLE7=Ben E King - Spanish Harlem
TTITLE8=Jimmy Ruffin - What Becomes Of The Broken Hearted
TTITLE9=Carla Thomas - Baby
TTITLE10=Mary Wells - My Guy
TTITLE11=Aaron Neville - Tell It Like It Is
TTITLE12=Dobie Gray - Drift Away
TTITLE13=Ben E King - Stand By Me
TTITLE14=Percy Sledge - When A Mon Loves A Woman
TTITLE15=The Chi-Lites - Oh Girl
TTITLE16=Jerry Buttler - Make It Easy On Yourself
TTITLE17=Jackie Wilson - Your Love Keeps Lifting Me Higher
TTITLE18=Al Jarreau - Aint No Sunshine When Shes Gone
TTITLE19=Clarence Carter - Patches
EXTD=
EXTT0=
EXTT1=
EXTT2=
EXTT3=
EXTT4=
EXTT5=
EXTT6=
EXTT7=
EXTT8=
EXTT9=
EXTT10=
EXTT11=
EXTT12=
EXTT13=
EXTT14=
EXTT15=
EXTT16=
EXTT17=
EXTT18=
EXTT19=
PLAYORDER=
